<svg id="Laag_1" data-name="Laag 1" xmlns="http://www.w3.org/2000/svg" viewBox="0 0 313 198"><defs><style>.cls-1{fill:#eedcff;}.cls-15,.cls-16,.cls-17,.cls-2{fill:none;stroke-width:1.45px;}.cls-2{stroke:#d09bff;stroke-miterlimit:10;}.cls-3{fill:#ff8c00;}.cls-4{fill:gold;}.cls-5{fill:#e4c5ff;}.cls-6{fill:#005652;}.cls-7{fill:#f1f1f1;}.cls-8{fill:#e2a700;}.cls-9{fill:#333;}.cls-10{fill:#00a08c;}.cls-11{fill:#fa6500;}.cls-12{fill:#fff;}.cls-13{fill:#d09bff;}.cls-14{fill:#aeaeae;}.cls-15{stroke:#ff8c00;}.cls-15,.cls-16,.cls-17{stroke-linecap:round;stroke-linejoin:round;}.cls-16{stroke:#e2a700;}.cls-17{stroke:#fa6500;}</style></defs><path class="cls-1" d="M134.31,39.72H121.59a14.69,14.69,0,0,1-.7-4.46c0-6.71,4.67-12.55,10.4-12.55a10.12,10.12,0,0,1,6.19,2.12c4,3,6.62,8.8,7.71,14.89Z"/><path class="cls-2" d="M129.38,30.18a16.31,16.31,0,0,1,4.67,9.54"/><path class="cls-3" d="M138.19,112.57l-1.26,6.08c-11.28,4.57-20.09,12.46-24.46,22.06A57.76,57.76,0,0,0,81,149.87c-9.55-3.17-11.7-12-17.09-15.7-7.69-5.37-22.1-4.53-22.1-20,0-17.64,16.6-14.82,22.5-21.46,4.32-4.87,3.66-12.77,9-18.17,4.4-4.43,11.42-3.92,16.46-7.24,3-2,4.57-5,6-8.06,1.61-3.52,3-7.16,6.12-9.56,5.3-4.13,11-2.67,16.56-6.14a16.93,16.93,0,0,0,4.4-3.82h68.48a16.89,16.89,0,0,0,4.39,3.82c5.6,3.47,11.26,2,16.57,6.14,3.08,2.4,4.5,6,6.12,9.56,1.42,3.1,3,6.1,6,8.06,5,3.32,12.06,2.81,16.47,7.24,5.36,5.4,4.7,13.3,9,18.17,5.9,6.64,22.5,3.82,22.5,21.46,0,15.47-14.41,14.63-22.11,20-5.38,3.75-7.53,12.53-17.08,15.7a57.68,57.68,0,0,0-26.32-8.94,15.54,15.54,0,0,1-1.06-1.74c-5.18-10.1-15.36-18.12-28.08-22.1l-.93-4.52"/><path class="cls-4" d="M190.2,83.13a17.25,17.25,0,0,0,2.07-4h5.82a40.3,40.3,0,0,1-8,21.89,40.76,40.76,0,0,1-13.31,11.53l.93,4.52a60.89,60.89,0,0,0-18.23-2.74,59.84,59.84,0,0,0-22.59,4.3l1.26-6.08h0A40.62,40.62,0,0,1,117,79.15h5.79a17.15,17.15,0,0,0,32.36-.37H160a17.15,17.15,0,0,0,30.29,4.35Zm-25,10H149.78c0,3.92,3.45,7.1,7.71,7.1s7.7-3.23,7.7-7.13Z"/><path class="cls-5" d="M213.7,187.12a104.41,104.41,0,0,0-4.15-13.37,35.25,35.25,0,0,1,7.66-2.58V147.23a15,15,0,0,1-10.32-6.3,57.68,57.68,0,0,1,26.32,8.94,60.61,60.61,0,0,1,27.63,47.86H182.32a15.12,15.12,0,0,0-.34-2.68h0Z"/><path class="cls-6" d="M232.87,39.72a9.76,9.76,0,0,1,0,19.52H218.42c-1.62-3.52-3-7.16-6.12-9.56-5.31-4.13-11-2.67-16.57-6.14a16.89,16.89,0,0,1-4.39-3.82Z"/><path class="cls-7" d="M206.89,140.93a15,15,0,0,0,10.32,6.3v23.94a35.25,35.25,0,0,0-7.66,2.58c-4.46-11.3-11.2-20.21-21.7-20.21-5.36,0-8.1,4.54-8.1,9.25v.06A8,8,0,0,0,173.9,171a7.89,7.89,0,0,0,.54,3,8,8,0,0,0-4,7.36c0,5.65,6.12,5.47,9.57,9.63a60.69,60.69,0,0,1-20.5,3.51,57.44,57.44,0,0,1-33.39-10.22c2.47-7.52,11.25-5.92,11.25-12.69a8,8,0,0,0-4-7.36,7.67,7.67,0,0,0,.54-3,8.06,8.06,0,0,0-5.84-8.16V153c0-4.71-2.75-9.25-8.1-9.25a15.54,15.54,0,0,0-9.76,3.69,34.3,34.3,0,0,1,2.25-6.75c4.37-9.6,13.18-17.49,24.46-22.06a59.84,59.84,0,0,1,22.59-4.3,60.89,60.89,0,0,1,18.23,2.74c12.72,4,22.9,12,28.08,22.1A15,15,0,0,0,206.89,140.93Zm-4.45,5.59a1.51,1.51,0,1,0-1.52,1.5h0a1.5,1.5,0,0,0,1.5-1.5Zm-9.37-5.22a8.78,8.78,0,0,0,1.94-7.52,10.16,10.16,0,0,0-4.81-6.61,27.32,27.32,0,0,0-8.24-3.32c-7.27-1.64-13,2.83-13,8.89.08,8.61,1.18,16.82,8.93,18.56,3.31.7,10.11-4,15.18-10Zm-26.38-14.53V120a63.56,63.56,0,0,0-7.17-.41,61.31,61.31,0,0,0-15.37,1.93v6.76a61.77,61.77,0,0,1,15.37-1.92A63.56,63.56,0,0,1,166.69,126.77Z"/><path class="cls-4" d="M180,191c-3.45-4.16-9.57-4-9.57-9.63a8,8,0,0,1,4-7.36,7.89,7.89,0,0,1-.54-3,8,8,0,0,1,5.85-8.15v-.06c0-4.71,2.74-9.25,8.1-9.25,10.5,0,17.24,8.91,21.7,20.21a104.41,104.41,0,0,1,4.15,13.37L182,195.05h0A9.52,9.52,0,0,0,180,191Z"/><path class="cls-8" d="M200.66,78.81c2.36,1.42,3.94,4.55,3.94,8.09,0,8.29-8.61,14.17-13.87,14.17h-.6a40.3,40.3,0,0,0,8-21.89h.6a5.92,5.92,0,0,0,2-.34Z"/><path class="cls-6" d="M198.69,67.37a5.89,5.89,0,1,1,0,11.78h-.6c0-.78.07-1.57.07-2.36a41,41,0,0,0-1.1-9.42Z"/><circle class="cls-9" cx="200.94" cy="146.52" r="2.2"/><path class="cls-10" d="M170.69,83.05A11.16,11.16,0,1,0,165,73.3,11.16,11.16,0,0,0,170.69,83.05Zm27.47-6.26c0,.79,0,1.58-.07,2.36h-5.82a17.14,17.14,0,0,1-32.36-.35H155.1a17.15,17.15,0,0,1-32.36.37H117c0-.78-.07-1.57-.07-2.36a41,41,0,0,1,1.1-9.42h4.79a17.15,17.15,0,0,1,32.33.46H160a17.14,17.14,0,0,1,32.32-.46h4.83A40.2,40.2,0,0,1,198.16,76.79ZM150,73.3a11.18,11.18,0,1,0-16.63,9.76h0a11.22,11.22,0,0,0,10.89,0h0A11.21,11.21,0,0,0,150,73.3Z"/><path class="cls-4" d="M195.44,62.13a40.16,40.16,0,0,1,1.62,5.24h-4.83a17.14,17.14,0,0,0-32.32.46H155.1a17.15,17.15,0,0,0-32.33-.46H118a40.31,40.31,0,0,1,6.41-14.13,9.47,9.47,0,0,0,4.11,1c5.36,0,8.55-5.83,14.9-5.83,3.76,0,7.33,4.3,13.72,4.3h.77c6.39,0,10-4.3,13.71-4.3,6.36,0,9.54,5.83,14.91,5.83a9.45,9.45,0,0,0,4.13-1.06A40.53,40.53,0,0,1,195.44,62.13Z"/><path class="cls-11" d="M195,133.78a8.78,8.78,0,0,1-1.94,7.52c-5.08,6-11.87,10.74-15.16,10-7.75-1.74-8.85-10-8.93-18.56,0-6.06,5.71-10.53,13-8.89a27.32,27.32,0,0,1,8.24,3.32A10.15,10.15,0,0,1,195,133.78Z"/><path class="cls-10" d="M184.41,39.72H145.19c-1.09-6.09-3.7-11.89-7.71-14.89a48.74,48.74,0,0,1,2.36-4.39H176.7C180.23,26.55,182.69,33.8,184.41,39.72Z"/><path class="cls-12" d="M176.15,62.13a11.17,11.17,0,0,1,5.46,20.92,8.79,8.79,0,1,0-10.92,0,11.17,11.17,0,0,1,5.46-20.92Z"/><path class="cls-6" d="M184.94,76.16a8.77,8.77,0,0,1-3.33,6.89,11.22,11.22,0,0,1-10.92,0,8.79,8.79,0,1,1,14.25-6.89Z"/><path class="cls-13" d="M182.32,197.73H127.05a39.16,39.16,0,0,1-1.42-6.51,22.54,22.54,0,0,1-.14-2.46,14.33,14.33,0,0,1,.64-4.5,57.44,57.44,0,0,0,33.39,10.22A60.54,60.54,0,0,0,180,191a9.52,9.52,0,0,1,2,4.08A14.76,14.76,0,0,1,182.32,197.73Z"/><path class="cls-6" d="M176.7,20.44H139.85c4.53-7.43,11-12.85,19.21-12.85C166.84,7.59,172.52,13.22,176.7,20.44Z"/><path class="cls-14" d="M166.69,120v6.76a63.55,63.55,0,0,0-7.17-.4,61.77,61.77,0,0,0-15.37,1.92v-6.76a61.31,61.31,0,0,1,15.37-1.93A63.56,63.56,0,0,1,166.69,120Z"/><path class="cls-11" d="M149.78,93.1h15.41c0,3.92-3.45,7.1-7.7,7.1S149.78,97,149.78,93.1Z"/><path class="cls-15" d="M154.33,86.29a3.17,3.17,0,0,1,6.31,0"/><path class="cls-12" d="M138.85,62.13a11.18,11.18,0,0,1,5.46,20.93A8.8,8.8,0,1,0,132,81.61a8.65,8.65,0,0,0,1.45,1.45,11.18,11.18,0,0,1,5.45-20.93Z"/><path class="cls-6" d="M147.64,76.16a8.79,8.79,0,0,1-3.33,6.9h0a11.22,11.22,0,0,1-10.89,0h0a8.79,8.79,0,1,1,14.24-6.9Z"/><path class="cls-4" d="M133.38,164.21a8,8,0,0,1,4,7.36c0,6.77-8.78,5.17-11.25,12.69a14.33,14.33,0,0,0-.64,4.5,22.54,22.54,0,0,0,.14,2.46L92.9,180.36c3.55-12.74,9.23-26.49,17.32-32.9h0a15.54,15.54,0,0,1,9.76-3.69c5.35,0,8.1,4.54,8.1,9.25v.06a8.06,8.06,0,0,1,5.84,8.16A7.52,7.52,0,0,1,133.38,164.21Z"/><path class="cls-5" d="M92.9,180.36l32.73,10.86a39.16,39.16,0,0,0,1.42,6.51H53.35A60.66,60.66,0,0,1,81,149.87a57.77,57.77,0,0,1,31.48-9.16,34.3,34.3,0,0,0-2.25,6.75h0C102.13,153.87,96.45,167.62,92.9,180.36Z"/><path class="cls-6" d="M121.59,39.72h1.27a16.93,16.93,0,0,1-4.4,3.82c-5.59,3.47-11.26,2-16.56,6.14-3.08,2.4-4.51,6-6.12,9.56H77.25a9.76,9.76,0,0,1,0-19.52Z"/><path class="cls-6" d="M116.91,79.15h-.59a5.7,5.7,0,0,1-2-.36,5.89,5.89,0,0,1,2-11.42H118a41,41,0,0,0-1.1,9.42c0,.79,0,1.58.07,2.36Z"/><path class="cls-8" d="M116.92,79.33v-.18h-.59a5.7,5.7,0,0,1-2-.36h0c-2.36,1.42-3.94,4.55-3.94,8.09,0,8.29,8.61,14.17,13.86,14.17h.6A40.4,40.4,0,0,1,116.92,79.33Z"/><path class="cls-16" d="M173.73,174.41a8.15,8.15,0,0,1,3.16-.64c4,0,7.87,2.94,9.51,8.61"/><path class="cls-16" d="M179.77,162a8.23,8.23,0,0,1,1.21-.19c4-.33,8.32,2.13,11.24,6.61"/><path class="cls-16" d="M120.93,173.28c1.94-6.47,6.4-10,10.93-10a9.56,9.56,0,0,1,1.77.17"/><path class="cls-16" d="M112.24,162.77c.63-5,6.8-10.59,13-10.59a11.81,11.81,0,0,1,2.78.33"/><path class="cls-17" d="M119.87,49.42a11.23,11.23,0,0,0,7.27,4.74,6.89,6.89,0,0,0,1.36.13c5.36,0,8.55-5.83,14.9-5.83,3.76,0,7.33,4.3,13.72,4.3h.77c6.39,0,10-4.3,13.71-4.3,6,0,9.12,5.11,13.91,5.76a10.37,10.37,0,0,0,1.47.1c3.12,0,5.71-1.42,8.1-3.58"/><path class="cls-17" d="M102.47,110.81c-1.83,14.28-26,15.75-31.48,31.56"/><path class="cls-17" d="M85.33,105c-1.26,10.17-18.92,13.17-25.83,26.84"/><path class="cls-17" d="M209.77,113c3.58,18.27,26.37,10,33.23,29.65"/><path class="cls-17" d="M224.74,105.5c2.66,16.77,22,8.36,30.85,26"/><path class="cls-17" d="M243.33,101.64c2.31,10.42,18.28,8.25,24.85,23.59"/><path class="cls-17" d="M70.24,100.67c-3.75,11.2-18.41,13-22.42,26"/><path class="cls-2" d="M70.72,173.88c6.22,3.5,15.27,14.3,18.29,21.87,1-4.53,4.45-15.2,4.45-15.2"/><path class="cls-2" d="M213.34,187.48s1.74,6.35,2.41,8.63c4.52-11,14.6-22.35,14.6-22.35"/></svg>